<?xml version="1.0" encoding="UTF-8"?>
<svg xmlns="http://www.w3.org/2000/svg" width="1024" height="1024" viewBox="0 0 1024 1024">
  <rect width="1024" height="1024" rx="190" fill="#F0EFEC" />
  <g>
    <path d="M 512 512 L 512 196 A 316 316 0 0 1 735.445742854949 288.554257145051 Z" fill="#8B7D96" />
    <path d="M 512 512 L 735.445742854949 288.554257145051 A 316 316 0 0 1 828 512 Z" fill="#9CB8AA" />
    <path d="M 512 512 L 828 512 A 316 316 0 0 1 735.445742854949 735.445742854949 Z" fill="#8B7D96" />
    <path d="M 512 512 L 735.445742854949 735.445742854949 A 316 316 0 0 1 512 828 Z" fill="#9CB8AA" />
    <path d="M 512 512 L 512 828 A 316 316 0 0 1 288.554257145051 735.445742854949 Z" fill="#8B7D96" />
    <path d="M 512 512 L 288.554257145051 735.445742854949 A 316 316 0 0 1 196 512 Z" fill="#9CB8AA" />
    <path d="M 512 512 L 196 512 A 316 316 0 0 1 288.55425714505094 288.554257145051 Z" fill="#8B7D96" />
    <path d="M 512 512 L 288.55425714505094 288.554257145051 A 316 316 0 0 1 511.99999999999994 196 Z" fill="#9CB8AA" />
    <path d="M 512 469 L 512 205 L 512 187 L 512 451 Z" fill="#6E6278" opacity="0.55" />
    <path d="M 542.4055915910214 481.59440840897844 L 729.08178182427 294.9182181757299 L 741.809703885628 282.1902961143721 L 555.1335136523794 468.8664863476206 Z" fill="#6E6278" opacity="0.55" />
    <path d="M 555 512 L 819 512 L 837 512 L 573 512 Z" fill="#6E6278" opacity="0.55" />
    <path d="M 542.4055915910214 542.4055915910214 L 729.08178182427 729.08178182427 L 741.809703885628 741.809703885628 L 555.1335136523794 555.1335136523794 Z" fill="#6E6278" opacity="0.55" />
    <path d="M 512 555 L 512 819 L 512 837 L 512 573 Z" fill="#6E6278" opacity="0.55" />
    <path d="M 481.59440840897844 542.4055915910214 L 294.9182181757299 729.08178182427 L 282.1902961143721 741.809703885628 L 468.8664863476206 555.1335136523794 Z" fill="#6E6278" opacity="0.55" />
    <path d="M 469 512 L 205 512 L 187 512 L 451 512 Z" fill="#6E6278" opacity="0.55" />
    <path d="M 481.59440840897844 481.59440840897844 L 294.91821817572986 294.9182181757299 L 282.190296114372 282.1902961143721 L 468.8664863476206 468.8664863476206 Z" fill="#6E6278" opacity="0.55" />
    <circle cx="512" cy="512" r="360" fill="none" stroke="#6B5E74" stroke-width="44" />
    <circle cx="512" cy="512" r="316" fill="none" stroke="#7A6D85" stroke-width="3" opacity="0.7" />
    <circle cx="512" cy="174" r="7" fill="#7A6D85" stroke="#4A4150" stroke-width="2" />
    <circle cx="681" cy="219.28341352085977" r="7" fill="#7A6D85" stroke="#4A4150" stroke-width="2" />
    <circle cx="804.7165864791402" cy="343" r="7" fill="#7A6D85" stroke="#4A4150" stroke-width="2" />
    <circle cx="850" cy="512" r="7" fill="#7A6D85" stroke="#4A4150" stroke-width="2" />
    <circle cx="804.7165864791402" cy="681" r="7" fill="#7A6D85" stroke="#4A4150" stroke-width="2" />
    <circle cx="681" cy="804.7165864791402" r="7" fill="#7A6D85" stroke="#4A4150" stroke-width="2" />
    <circle cx="512" cy="850" r="7" fill="#7A6D85" stroke="#4A4150" stroke-width="2" />
    <circle cx="343.0000000000001" cy="804.7165864791402" r="7" fill="#7A6D85" stroke="#4A4150" stroke-width="2" />
    <circle cx="219.2834135208597" cy="681" r="7" fill="#7A6D85" stroke="#4A4150" stroke-width="2" />
    <circle cx="174" cy="512" r="7" fill="#7A6D85" stroke="#4A4150" stroke-width="2" />
    <circle cx="219.28341352085977" cy="343" r="7" fill="#7A6D85" stroke="#4A4150" stroke-width="2" />
    <circle cx="342.9999999999999" cy="219.28341352085977" r="7" fill="#7A6D85" stroke="#4A4150" stroke-width="2" />
    <circle cx="512" cy="512" r="62" fill="none" stroke="#4A4150" stroke-width="4" />
    <circle cx="512" cy="512" r="52" fill="#5C5060" />
    <circle cx="512" cy="512" r="16" fill="#F0EFEC" opacity="0.35" />
    <polygon
      points="512,98 492,148 532,148"
      fill="#3A3540"
    />
  </g>
</svg>